<svg fill="#fff" viewBox="0 0 81 32" xmlns="http://www.w3.org/2000/svg"><path d="m.757 16c0 6.05.015 11 .035 11 .03 0 4.147-.754 4.652-.854l.262-.05v-8.076h3.132v-.738c0-.404.015-1.457.035-2.345l.03-1.606h-3.196v-3.542h1.844c1.015 0 1.843-.01 1.843-.025 0-.055.405-4.316.43-4.53l.03-.234h-9.098v11zm75.548-10.356-4.03.329v19.875l.166.025c.147.025 7.95.583 8.106.578.046 0 .061-.528.061-2.469v-2.47h-3.434v-3.591h2.93v-4.29h-3.032v-2.844l.117-.02c.06-.015.575-.035 1.146-.055.57-.015 1.313-.04 1.657-.06l.616-.03v-5.322l-.136.005c-.08.005-1.955.154-4.167.339zm-25.875.689c.051.499.627 8.017.617 8.027-.005.01-.748-1.791-1.652-4.001a359.66 359.66 0 0 0 -1.677-4.076c-.03-.055-1.424.2-3.712.679l-.217.044v17.151h4.495l-.025-.359c-.05-.668-.238-6.196-.218-6.415.016-.195.167.145 1.602 3.567.868 2.08 1.606 3.801 1.626 3.831.03.03.732-.015 1.924-.115 1.036-.09 1.884-.17 1.884-.174.005-.005-.02-3.602-.055-7.992-.036-4.39-.066-8.536-.066-9.22l-.005-1.231h-4.55l.03.284zm-35.556.02c-3.02.2-4.682 2.24-5.208 6.38-.106.858-.15 3.772-.075 4.79.252 3.302 1.156 5.447 2.762 6.54.864.583 2.162.898 3.445.823 1.46-.08 2.454-.49 3.348-1.372.733-.723 1.132-1.402 1.516-2.56.535-1.616.777-4.03.656-6.544-.136-2.814-.565-4.565-1.45-5.907-.843-1.277-2.176-2.04-3.732-2.135-.247-.015-.51-.03-.58-.04-.227 0-.455.008-.682.025zm.712 3.921c.368.394.525 1.966.525 5.328 0 4.14-.263 5.861-.838 5.492-.248-.164-.435-.967-.526-2.3-.065-.972-.065-5.427 0-6.36.096-1.317.268-2.045.526-2.22.141-.1.166-.095.313.06zm6.383 5.148v9.085h4.632l.03-.634c.02-.354.06-1.502.091-2.56.03-1.057.07-1.985.091-2.06.025-.104.242.57.91 2.844.484 1.641.893 3.003.913 3.023.04.045 4.778-.324 4.83-.374.014-.02-.51-1.651-1.168-3.637l-1.192-3.602.253-.219c.838-.723 1.53-2.12 1.727-3.502.086-.604.03-2.1-.1-2.654-.506-2.17-1.845-3.856-3.55-4.485-.744-.27-.683-.264-4.194-.284l-3.273-.02v9.08zm5.208-4.779c.358.175.651.624.808 1.242.106.414.09 1.726-.025 2.145-.218.789-.6 1.248-1.177 1.422l-.116.03v-4.994l.166.035c.086.015.243.07.344.12zm6.056-1.925v2.32h2.576v13.369h4.848v-12.571h2.627v-4.64l-.11-.02c-.107-.024-9.739-.783-9.875-.778-.05 0-.066.5-.066 2.32zm22.777 7.232v9.054h5v-18.108h-5zm10.71-8.425c-2.738.145-5.016.265-5.06.265-.088.005-.093.15-.093 2.35v2.344h2.576v13.12h4.9v-13.669h2.726v-2.344c0-1.292-.015-2.34-.036-2.34-.025.005-2.275.125-5.013.274z"/></svg>